<mxfile host="app.diagrams.net" modified="2021-05-18T19:12:02.016Z" agent="5.0 (Windows NT 10.0; Win64; x64) AppleWebKit/537.36 (KHTML, like Gecko) Chrome/90.0.4430.212 Safari/537.36" etag="g2v_YmE9ftTw4nz-iwHz" version="14.6.11" type="github">
  <diagram id="R2lEEEUBdFMjLlhIrx00" name="Page-1">
    <mxGraphModel dx="1958" dy="460" grid="1" gridSize="10" guides="1" tooltips="1" connect="1" arrows="1" fold="1" page="1" pageScale="1" pageWidth="850" pageHeight="1100" math="0" shadow="0" extFonts="Permanent Marker^https://fonts.googleapis.com/css?family=Permanent+Marker">
      <root>
        <mxCell id="0" />
        <mxCell id="1" parent="0" />
        <mxCell id="BBmIpHjSIhqbikDXfR6h-1" value="wards" style="whiteSpace=wrap;html=1;align=center;" vertex="1" parent="1">
          <mxGeometry x="80" y="40" width="80" height="40" as="geometry" />
        </mxCell>
        <mxCell id="BBmIpHjSIhqbikDXfR6h-2" value="name" style="ellipse;whiteSpace=wrap;html=1;align=center;" vertex="1" parent="1">
          <mxGeometry x="30" y="120" width="70" height="40" as="geometry" />
        </mxCell>
        <mxCell id="BBmIpHjSIhqbikDXfR6h-3" value="wards_ID" style="ellipse;whiteSpace=wrap;html=1;align=center;fontStyle=4;" vertex="1" parent="1">
          <mxGeometry x="130" y="120" width="70" height="40" as="geometry" />
        </mxCell>
        <mxCell id="BBmIpHjSIhqbikDXfR6h-5" value="patients" style="whiteSpace=wrap;html=1;align=center;" vertex="1" parent="1">
          <mxGeometry x="80" y="250" width="80" height="40" as="geometry" />
        </mxCell>
        <mxCell id="BBmIpHjSIhqbikDXfR6h-6" value="date of birth" style="ellipse;whiteSpace=wrap;html=1;align=center;" vertex="1" parent="1">
          <mxGeometry x="-50" y="290" width="70" height="40" as="geometry" />
        </mxCell>
        <mxCell id="BBmIpHjSIhqbikDXfR6h-7" value="name" style="ellipse;whiteSpace=wrap;html=1;align=center;" vertex="1" parent="1">
          <mxGeometry x="130" y="320" width="70" height="40" as="geometry" />
        </mxCell>
        <mxCell id="BBmIpHjSIhqbikDXfR6h-8" value="ID" style="ellipse;whiteSpace=wrap;html=1;align=center;fontStyle=4;" vertex="1" parent="1">
          <mxGeometry x="30" y="320" width="70" height="40" as="geometry" />
        </mxCell>
        <mxCell id="BBmIpHjSIhqbikDXfR6h-9" value="" style="endArrow=none;html=1;rounded=0;exitX=0.6;exitY=0;exitDx=0;exitDy=0;exitPerimeter=0;entryX=0.414;entryY=-0.025;entryDx=0;entryDy=0;entryPerimeter=0;" edge="1" parent="1" source="BBmIpHjSIhqbikDXfR6h-8" target="BBmIpHjSIhqbikDXfR6h-7">
          <mxGeometry relative="1" as="geometry">
            <mxPoint x="40" y="300" as="sourcePoint" />
            <mxPoint x="200" y="300" as="targetPoint" />
            <Array as="points">
              <mxPoint x="120" y="290" />
            </Array>
          </mxGeometry>
        </mxCell>
        <mxCell id="BBmIpHjSIhqbikDXfR6h-10" value="" style="endArrow=none;html=1;rounded=0;entryX=0.5;entryY=0;entryDx=0;entryDy=0;exitX=0.5;exitY=0;exitDx=0;exitDy=0;" edge="1" parent="1" source="BBmIpHjSIhqbikDXfR6h-2" target="BBmIpHjSIhqbikDXfR6h-3">
          <mxGeometry relative="1" as="geometry">
            <mxPoint x="60" y="100" as="sourcePoint" />
            <mxPoint x="220" y="100" as="targetPoint" />
            <Array as="points">
              <mxPoint x="120" y="80" />
            </Array>
          </mxGeometry>
        </mxCell>
        <mxCell id="BBmIpHjSIhqbikDXfR6h-12" value="" style="endArrow=none;html=1;rounded=0;exitX=1;exitY=0.5;exitDx=0;exitDy=0;entryX=0;entryY=0.5;entryDx=0;entryDy=0;" edge="1" parent="1" source="BBmIpHjSIhqbikDXfR6h-6" target="BBmIpHjSIhqbikDXfR6h-5">
          <mxGeometry relative="1" as="geometry">
            <mxPoint x="70" y="210" as="sourcePoint" />
            <mxPoint x="230" y="210" as="targetPoint" />
          </mxGeometry>
        </mxCell>
        <mxCell id="BBmIpHjSIhqbikDXfR6h-14" value="name" style="ellipse;whiteSpace=wrap;html=1;align=center;" vertex="1" parent="1">
          <mxGeometry x="350" y="320" width="70" height="40" as="geometry" />
        </mxCell>
        <mxCell id="BBmIpHjSIhqbikDXfR6h-15" value="ID" style="ellipse;whiteSpace=wrap;html=1;align=center;fontStyle=4;" vertex="1" parent="1">
          <mxGeometry x="240" y="320" width="70" height="40" as="geometry" />
        </mxCell>
        <mxCell id="BBmIpHjSIhqbikDXfR6h-16" value="" style="endArrow=none;html=1;rounded=0;exitX=0.5;exitY=0;exitDx=0;exitDy=0;entryX=0.5;entryY=0;entryDx=0;entryDy=0;startArrow=none;" edge="1" parent="1" source="BBmIpHjSIhqbikDXfR6h-13" target="BBmIpHjSIhqbikDXfR6h-14">
          <mxGeometry relative="1" as="geometry">
            <mxPoint x="260" y="290" as="sourcePoint" />
            <mxPoint x="420" y="290" as="targetPoint" />
            <Array as="points">
              <mxPoint x="320" y="290" />
            </Array>
          </mxGeometry>
        </mxCell>
        <mxCell id="BBmIpHjSIhqbikDXfR6h-17" value="assign" style="shape=rhombus;perimeter=rhombusPerimeter;whiteSpace=wrap;html=1;align=center;" vertex="1" parent="1">
          <mxGeometry x="180" y="220" width="80" height="50" as="geometry" />
        </mxCell>
        <mxCell id="BBmIpHjSIhqbikDXfR6h-18" value="host" style="shape=rhombus;perimeter=rhombusPerimeter;whiteSpace=wrap;html=1;align=center;" vertex="1" parent="1">
          <mxGeometry x="-70" y="170" width="80" height="50" as="geometry" />
        </mxCell>
        <mxCell id="BBmIpHjSIhqbikDXfR6h-19" value="" style="endArrow=none;html=1;rounded=0;exitX=0.5;exitY=1;exitDx=0;exitDy=0;entryX=0;entryY=0.5;entryDx=0;entryDy=0;" edge="1" parent="1" source="BBmIpHjSIhqbikDXfR6h-18" target="BBmIpHjSIhqbikDXfR6h-5">
          <mxGeometry relative="1" as="geometry">
            <mxPoint x="-90" y="250" as="sourcePoint" />
            <mxPoint x="70" y="250" as="targetPoint" />
          </mxGeometry>
        </mxCell>
        <mxCell id="BBmIpHjSIhqbikDXfR6h-41" value="1" style="edgeLabel;html=1;align=center;verticalAlign=middle;resizable=0;points=[];" vertex="1" connectable="0" parent="BBmIpHjSIhqbikDXfR6h-19">
          <mxGeometry x="0.7679" y="-1" relative="1" as="geometry">
            <mxPoint x="1" as="offset" />
          </mxGeometry>
        </mxCell>
        <mxCell id="BBmIpHjSIhqbikDXfR6h-20" value="" style="endArrow=none;html=1;rounded=0;exitX=0.5;exitY=0;exitDx=0;exitDy=0;entryX=0;entryY=0.5;entryDx=0;entryDy=0;" edge="1" parent="1" source="BBmIpHjSIhqbikDXfR6h-18" target="BBmIpHjSIhqbikDXfR6h-1">
          <mxGeometry relative="1" as="geometry">
            <mxPoint x="-40" y="140" as="sourcePoint" />
            <mxPoint x="120" y="140" as="targetPoint" />
          </mxGeometry>
        </mxCell>
        <mxCell id="BBmIpHjSIhqbikDXfR6h-21" value="" style="endArrow=none;html=1;rounded=0;exitX=1;exitY=0.5;exitDx=0;exitDy=0;entryX=0;entryY=0.5;entryDx=0;entryDy=0;" edge="1" parent="1" source="BBmIpHjSIhqbikDXfR6h-5" target="BBmIpHjSIhqbikDXfR6h-17">
          <mxGeometry relative="1" as="geometry">
            <mxPoint x="150" y="200" as="sourcePoint" />
            <mxPoint x="310" y="200" as="targetPoint" />
          </mxGeometry>
        </mxCell>
        <mxCell id="BBmIpHjSIhqbikDXfR6h-22" value="" style="endArrow=none;html=1;rounded=0;exitX=1;exitY=0.5;exitDx=0;exitDy=0;entryX=0;entryY=0.5;entryDx=0;entryDy=0;" edge="1" parent="1" source="BBmIpHjSIhqbikDXfR6h-17" target="BBmIpHjSIhqbikDXfR6h-13">
          <mxGeometry relative="1" as="geometry">
            <mxPoint x="330" y="190" as="sourcePoint" />
            <mxPoint x="490" y="190" as="targetPoint" />
          </mxGeometry>
        </mxCell>
        <mxCell id="BBmIpHjSIhqbikDXfR6h-23" value="supervision" style="whiteSpace=wrap;html=1;align=center;" vertex="1" parent="1">
          <mxGeometry x="480" y="40" width="80" height="40" as="geometry" />
        </mxCell>
        <mxCell id="BBmIpHjSIhqbikDXfR6h-24" value="nurse" style="whiteSpace=wrap;html=1;align=center;" vertex="1" parent="1">
          <mxGeometry x="470" y="220" width="80" height="40" as="geometry" />
        </mxCell>
        <mxCell id="BBmIpHjSIhqbikDXfR6h-26" value="name" style="ellipse;whiteSpace=wrap;html=1;align=center;" vertex="1" parent="1">
          <mxGeometry x="410" y="150" width="70" height="40" as="geometry" />
        </mxCell>
        <mxCell id="BBmIpHjSIhqbikDXfR6h-30" value="address" style="ellipse;whiteSpace=wrap;html=1;align=center;" vertex="1" parent="1">
          <mxGeometry x="590" y="230" width="70" height="40" as="geometry" />
        </mxCell>
        <mxCell id="BBmIpHjSIhqbikDXfR6h-31" value="number" style="ellipse;whiteSpace=wrap;html=1;align=center;" vertex="1" parent="1">
          <mxGeometry x="550" y="150" width="70" height="40" as="geometry" />
        </mxCell>
        <mxCell id="BBmIpHjSIhqbikDXfR6h-32" value="" style="endArrow=none;html=1;rounded=0;exitX=1;exitY=0.5;exitDx=0;exitDy=0;entryX=0;entryY=0.5;entryDx=0;entryDy=0;" edge="1" parent="1" source="BBmIpHjSIhqbikDXfR6h-26" target="BBmIpHjSIhqbikDXfR6h-31">
          <mxGeometry relative="1" as="geometry">
            <mxPoint x="500" y="170" as="sourcePoint" />
            <mxPoint x="610" y="210" as="targetPoint" />
            <Array as="points">
              <mxPoint x="520" y="220" />
            </Array>
          </mxGeometry>
        </mxCell>
        <mxCell id="BBmIpHjSIhqbikDXfR6h-33" value="" style="endArrow=none;html=1;rounded=0;exitX=1;exitY=0.5;exitDx=0;exitDy=0;entryX=0;entryY=0.5;entryDx=0;entryDy=0;" edge="1" parent="1" source="BBmIpHjSIhqbikDXfR6h-24" target="BBmIpHjSIhqbikDXfR6h-30">
          <mxGeometry relative="1" as="geometry">
            <mxPoint x="570" y="100" as="sourcePoint" />
            <mxPoint x="680" y="140" as="targetPoint" />
          </mxGeometry>
        </mxCell>
        <mxCell id="BBmIpHjSIhqbikDXfR6h-36" value="M" style="text;html=1;align=center;verticalAlign=middle;resizable=0;points=[];autosize=1;strokeColor=none;" vertex="1" parent="1">
          <mxGeometry x="255" y="250" width="30" height="20" as="geometry" />
        </mxCell>
        <mxCell id="BBmIpHjSIhqbikDXfR6h-39" value="N" style="text;html=1;align=center;verticalAlign=middle;resizable=0;points=[];autosize=1;strokeColor=none;" vertex="1" parent="1">
          <mxGeometry x="160" y="250" width="20" height="20" as="geometry" />
        </mxCell>
        <mxCell id="BBmIpHjSIhqbikDXfR6h-40" value="M" style="text;html=1;align=center;verticalAlign=middle;resizable=0;points=[];autosize=1;strokeColor=none;" vertex="1" parent="1">
          <mxGeometry x="55" y="40" width="30" height="20" as="geometry" />
        </mxCell>
        <mxCell id="BBmIpHjSIhqbikDXfR6h-47" value="under" style="shape=rhombus;perimeter=rhombusPerimeter;whiteSpace=wrap;html=1;align=center;" vertex="1" parent="1">
          <mxGeometry x="285" y="20" width="80" height="50" as="geometry" />
        </mxCell>
        <mxCell id="BBmIpHjSIhqbikDXfR6h-48" value="" style="endArrow=none;html=1;rounded=0;entryX=0;entryY=0.5;entryDx=0;entryDy=0;exitX=1;exitY=0.5;exitDx=0;exitDy=0;" edge="1" parent="1" source="BBmIpHjSIhqbikDXfR6h-1" target="BBmIpHjSIhqbikDXfR6h-47">
          <mxGeometry relative="1" as="geometry">
            <mxPoint x="160" y="70" as="sourcePoint" />
            <mxPoint x="320" y="70" as="targetPoint" />
          </mxGeometry>
        </mxCell>
        <mxCell id="BBmIpHjSIhqbikDXfR6h-55" value="1" style="edgeLabel;html=1;align=center;verticalAlign=middle;resizable=0;points=[];" vertex="1" connectable="0" parent="BBmIpHjSIhqbikDXfR6h-48">
          <mxGeometry x="-0.8106" y="-1" relative="1" as="geometry">
            <mxPoint as="offset" />
          </mxGeometry>
        </mxCell>
        <mxCell id="BBmIpHjSIhqbikDXfR6h-49" value="" style="endArrow=none;html=1;rounded=0;entryX=0;entryY=0.5;entryDx=0;entryDy=0;exitX=1;exitY=0.5;exitDx=0;exitDy=0;" edge="1" parent="1" source="BBmIpHjSIhqbikDXfR6h-47" target="BBmIpHjSIhqbikDXfR6h-23">
          <mxGeometry relative="1" as="geometry">
            <mxPoint x="400" y="80" as="sourcePoint" />
            <mxPoint x="520" y="135" as="targetPoint" />
          </mxGeometry>
        </mxCell>
        <mxCell id="BBmIpHjSIhqbikDXfR6h-56" value="M" style="edgeLabel;html=1;align=center;verticalAlign=middle;resizable=0;points=[];" vertex="1" connectable="0" parent="BBmIpHjSIhqbikDXfR6h-49">
          <mxGeometry x="0.8169" relative="1" as="geometry">
            <mxPoint as="offset" />
          </mxGeometry>
        </mxCell>
        <mxCell id="BBmIpHjSIhqbikDXfR6h-50" value="give" style="shape=rhombus;perimeter=rhombusPerimeter;whiteSpace=wrap;html=1;align=center;" vertex="1" parent="1">
          <mxGeometry x="270" y="160" width="80" height="50" as="geometry" />
        </mxCell>
        <mxCell id="BBmIpHjSIhqbikDXfR6h-51" value="" style="endArrow=none;html=1;rounded=0;exitX=1;exitY=0.5;exitDx=0;exitDy=0;entryX=0;entryY=0;entryDx=0;entryDy=0;" edge="1" parent="1" source="BBmIpHjSIhqbikDXfR6h-50" target="BBmIpHjSIhqbikDXfR6h-24">
          <mxGeometry relative="1" as="geometry">
            <mxPoint x="340" y="140" as="sourcePoint" />
            <mxPoint x="500" y="140" as="targetPoint" />
          </mxGeometry>
        </mxCell>
        <mxCell id="BBmIpHjSIhqbikDXfR6h-65" value="1" style="edgeLabel;html=1;align=center;verticalAlign=middle;resizable=0;points=[];" vertex="1" connectable="0" parent="BBmIpHjSIhqbikDXfR6h-51">
          <mxGeometry x="0.7914" y="-2" relative="1" as="geometry">
            <mxPoint as="offset" />
          </mxGeometry>
        </mxCell>
        <mxCell id="BBmIpHjSIhqbikDXfR6h-52" value="" style="endArrow=none;html=1;rounded=0;exitX=0.25;exitY=0;exitDx=0;exitDy=0;entryX=0;entryY=0.5;entryDx=0;entryDy=0;" edge="1" parent="1" source="BBmIpHjSIhqbikDXfR6h-5" target="BBmIpHjSIhqbikDXfR6h-50">
          <mxGeometry relative="1" as="geometry">
            <mxPoint x="100" y="190" as="sourcePoint" />
            <mxPoint x="260" y="190" as="targetPoint" />
          </mxGeometry>
        </mxCell>
        <mxCell id="BBmIpHjSIhqbikDXfR6h-66" value="M" style="edgeLabel;html=1;align=center;verticalAlign=middle;resizable=0;points=[];" vertex="1" connectable="0" parent="BBmIpHjSIhqbikDXfR6h-52">
          <mxGeometry x="-0.8124" relative="1" as="geometry">
            <mxPoint as="offset" />
          </mxGeometry>
        </mxCell>
        <mxCell id="BBmIpHjSIhqbikDXfR6h-53" value="time" style="ellipse;whiteSpace=wrap;html=1;align=center;" vertex="1" parent="1">
          <mxGeometry x="230" y="140" width="55" height="30" as="geometry" />
        </mxCell>
        <mxCell id="BBmIpHjSIhqbikDXfR6h-54" value="" style="endArrow=none;html=1;rounded=0;entryX=0.5;entryY=1;entryDx=0;entryDy=0;exitX=0;exitY=0;exitDx=0;exitDy=0;" edge="1" parent="1" source="BBmIpHjSIhqbikDXfR6h-50" target="BBmIpHjSIhqbikDXfR6h-53">
          <mxGeometry relative="1" as="geometry">
            <mxPoint x="100" y="190" as="sourcePoint" />
            <mxPoint x="260" y="190" as="targetPoint" />
          </mxGeometry>
        </mxCell>
        <mxCell id="BBmIpHjSIhqbikDXfR6h-59" value="drug" style="ellipse;shape=doubleEllipse;margin=3;whiteSpace=wrap;html=1;align=center;" vertex="1" parent="1">
          <mxGeometry x="300" y="120" width="60" height="30" as="geometry" />
        </mxCell>
        <mxCell id="BBmIpHjSIhqbikDXfR6h-60" value="brand name" style="ellipse;whiteSpace=wrap;html=1;align=center;" vertex="1" parent="1">
          <mxGeometry x="230" y="70" width="50" height="30" as="geometry" />
        </mxCell>
        <mxCell id="BBmIpHjSIhqbikDXfR6h-61" value="code" style="ellipse;whiteSpace=wrap;html=1;align=center;fontStyle=4;" vertex="1" parent="1">
          <mxGeometry x="380" y="70" width="50" height="30" as="geometry" />
        </mxCell>
        <mxCell id="BBmIpHjSIhqbikDXfR6h-62" value="" style="endArrow=none;html=1;rounded=0;exitX=0.5;exitY=1;exitDx=0;exitDy=0;entryX=0.5;entryY=1;entryDx=0;entryDy=0;" edge="1" parent="1" source="BBmIpHjSIhqbikDXfR6h-60" target="BBmIpHjSIhqbikDXfR6h-61">
          <mxGeometry relative="1" as="geometry">
            <mxPoint x="270" y="120" as="sourcePoint" />
            <mxPoint x="430" y="120" as="targetPoint" />
            <Array as="points">
              <mxPoint x="330" y="120" />
            </Array>
          </mxGeometry>
        </mxCell>
        <mxCell id="BBmIpHjSIhqbikDXfR6h-64" value="" style="endArrow=none;html=1;rounded=0;exitX=1;exitY=0;exitDx=0;exitDy=0;entryX=0.5;entryY=1;entryDx=0;entryDy=0;" edge="1" parent="1" source="BBmIpHjSIhqbikDXfR6h-50" target="BBmIpHjSIhqbikDXfR6h-59">
          <mxGeometry relative="1" as="geometry">
            <mxPoint x="350" y="150" as="sourcePoint" />
            <mxPoint x="510" y="150" as="targetPoint" />
          </mxGeometry>
        </mxCell>
        <mxCell id="BBmIpHjSIhqbikDXfR6h-13" value="consultants" style="whiteSpace=wrap;html=1;align=center;" vertex="1" parent="1">
          <mxGeometry x="280" y="250" width="80" height="40" as="geometry" />
        </mxCell>
        <mxCell id="BBmIpHjSIhqbikDXfR6h-67" value="" style="endArrow=none;html=1;rounded=0;exitX=0.5;exitY=0;exitDx=0;exitDy=0;entryX=0.5;entryY=1;entryDx=0;entryDy=0;" edge="1" parent="1" source="BBmIpHjSIhqbikDXfR6h-15" target="BBmIpHjSIhqbikDXfR6h-13">
          <mxGeometry relative="1" as="geometry">
            <mxPoint x="275" y="320" as="sourcePoint" />
            <mxPoint x="385" y="320" as="targetPoint" />
            <Array as="points" />
          </mxGeometry>
        </mxCell>
      </root>
    </mxGraphModel>
  </diagram>
</mxfile>
